<svg xmlns="http://www.w3.org/2000/svg" xmlns:xlink="http://www.w3.org/1999/xlink" fill="none" version="1.1" width="22.334976196289062" height="23.822406768798828" viewBox="0 0 22.334976196289062 23.822406768798828"><g><path d="M21.0267,7.95719Q21.5738,7.95719,21.9544,8.3021Q22.335,8.647,22.335,9.1465L22.335,16.1633Q22.335,16.639,21.9544,16.984Q21.5738,17.3289,21.0267,17.3289L20.5986,17.3289Q20.0515,17.3289,19.671,16.984Q19.2904,16.639,19.2904,16.1633L19.2904,9.1465Q19.2904,8.64698,19.671,8.3021Q20.0515,7.95721,20.5986,7.95719L21.0267,7.95719ZM1.73637,7.95719Q2.28345,7.95719,2.64023,8.3021Q2.99702,8.647,2.99702,9.1465L2.99702,16.1633Q2.99702,16.639,2.64023,16.984Q2.28345,17.3289,1.73637,17.3289L1.30821,17.3289Q0.761133,17.3289,0.380555,16.984Q-0.0000233459,16.639,0,16.1633L0,9.1465Q0,8.64698,0.380578,8.3021Q0.761156,7.95721,1.30823,7.95719L1.73637,7.95719ZM14.8662,2.43885Q15.2944,2.62917,15.7582,2.96214Q16.222,3.29512,16.6501,3.74706Q17.0783,4.19901,17.3994,4.73421Q17.7205,5.2694,17.8632,5.86403L4.35281,5.86403Q4.73339,4.60338,5.55401,3.79467Q6.37462,2.98596,7.20713,2.51022L5.99405,0.607331Q5.94647,0.559752,5.98216,0.428971Q6.01786,0.29819,6.23191,0.155409Q6.4222,-0.0110913,6.5887,0.000791559Q6.7552,0.0126744,6.80276,0.0602759L8.03967,2.01072Q8.70567,1.70149,9.44304,1.53499Q10.1804,1.36849,10.9653,1.36849Q12.5828,1.36849,13.9861,2.03451L15.2468,0.0602758Q15.2944,0.0126977,15.4252,0.0126977Q15.556,0.0126977,15.8177,0.155432Q16.0555,0.27433,16.0912,0.369487Q16.1269,0.464643,16.0793,0.512221L14.8662,2.43885ZM8.22991,4.48446Q8.53915,4.48446,8.7532,4.27038Q8.96726,4.0563,8.96728,3.74709Q8.9673,3.43788,8.7532,3.2238Q8.5391,3.00972,8.22991,3.00972Q7.92073,3.00972,7.70662,3.2238Q7.49252,3.43788,7.49257,3.74709Q7.49262,4.0563,7.70662,4.27038Q7.92063,4.48445,8.22991,4.48446ZM14.0813,4.3893Q14.3905,4.3893,14.6046,4.17524Q14.8186,3.96119,14.8186,3.65193Q14.8186,3.34267,14.6046,3.12864Q14.3905,2.91461,14.0813,2.91459Q13.772,2.91456,13.558,3.12864Q13.3439,3.34272,13.3439,3.65193Q13.3439,3.96114,13.558,4.17524Q13.772,4.38935,14.0813,4.3893ZM17.8632,7.36256L17.887,18.0662Q17.887,18.5895,17.5421,18.9463Q17.1972,19.3031,16.6977,19.3031L16.3647,19.3031L16.3647,22.6331Q16.3647,23.1088,16.0198,23.4656Q15.6749,23.8224,15.1754,23.8224L14.4856,23.8224Q14.0099,23.8224,13.665,23.4656Q13.3201,23.1088,13.3201,22.6331L13.3201,19.3031L8.94349,19.3031L8.94349,22.6331Q8.94349,23.1088,8.59861,23.4656Q8.25373,23.8224,7.7542,23.8224L7.06444,23.8224Q6.58873,23.8224,6.24382,23.4656Q5.89891,23.1088,5.89894,22.6331L5.89894,19.3031L5.63728,19.3031Q5.13778,19.3031,4.79287,18.9463Q4.44797,18.5895,4.44799,18.0662L4.44799,7.36253L17.8632,7.36256Z" fill="#FFFFFF" fill-opacity="1"/></g></svg>