<svg xmlns="http://www.w3.org/2000/svg" xmlns:xlink="http://www.w3.org/1999/xlink" version="1.1" width="14" height="10" viewBox="0 0 14 10"><g style="mix-blend-mode:passthrough" transform="matrix(-1,0,0,-1,28,20)"><path d="M25.7458,15.87138Q25.767899999999997,15.89874,25.788,15.92759Q25.8082,15.956430000000001,25.8262,15.98662Q25.8443,16.01681,25.8602,16.0482Q25.8761,16.07958,25.889699999999998,16.112009999999998Q25.903399999999998,16.14443,25.9147,16.17773Q25.926099999999998,16.21104,25.935000000000002,16.24505Q25.944000000000003,16.27907,25.950499999999998,16.31363Q25.9571,16.3482,25.961199999999998,16.38313Q25.9653,16.41807,25.967,16.45322Q25.968600000000002,16.48836,25.9678,16.52353Q25.967,16.5587,25.9637,16.59372Q25.9604,16.62875,25.9546,16.66345Q25.948900000000002,16.69816,25.9407,16.73238Q25.932499999999997,16.76659,25.922,16.800150000000002Q25.9114,16.83371,25.8985,16.86644Q25.8856,16.899169999999998,25.8705,16.93092Q25.8553,16.96267,25.837899999999998,16.99327Q25.8206,17.02387,25.801099999999998,17.05318Q25.7817,17.08248,25.760199999999998,17.11035Q25.7387,17.13822,25.715400000000002,17.16451Q25.692,17.1908,25.666800000000002,17.21538Q25.6416,17.23996,25.614800000000002,17.26271Q25.588,17.28546,25.5596,17.306269999999998Q25.5312,17.32708,25.5015,17.34585Q25.4717,17.36461,25.4407,17.38124Q25.4097,17.39787,25.3776,17.41228Q25.3455,17.42669,25.3125,17.43881Q25.2795,17.45092,25.2457,17.46069Q25.2119,17.47046,25.177500000000002,17.47782Q25.1431,17.48519,25.1083,17.49012Q25.0734,17.49506,25.0383,17.49753Q25.0032,17.5,24.9681,17.5L17.03193,17.5Q16.99675,17.5,16.961660000000002,17.49753Q16.926569999999998,17.49506,16.89174,17.49012Q16.8569,17.48519,16.822499999999998,17.47782Q16.7881,17.47046,16.75431,17.46069Q16.72051,17.45092,16.68748,17.43881Q16.65446,17.42669,16.62236,17.41228Q16.59027,17.39787,16.55927,17.38124Q16.52827,17.36461,16.49851,17.34585Q16.46875,17.32708,16.44039,17.306269999999998Q16.41202,17.28546,16.38519,17.26271Q16.35836,17.23996,16.333190000000002,17.21538Q16.30803,17.1908,16.28465,17.16451Q16.26127,17.13822,16.2398,17.11035Q16.21833,17.08248,16.19887,17.05318Q16.17941,17.02387,16.16205,16.99327Q16.1447,16.96267,16.12954,16.93092Q16.11438,16.899169999999998,16.10149,16.86644Q16.0886,16.83371,16.07804,16.800150000000002Q16.06748,16.76659,16.05931,16.73238Q16.05113,16.69816,16.04538,16.66345Q16.03963,16.62875,16.03633,16.59372Q16.03304,16.5587,16.03221,16.52353Q16.03138,16.48836,16.03303,16.45322Q16.03467,16.41807,16.03878,16.38313Q16.0429,16.3482,16.04945,16.31363Q16.05601,16.27907,16.06498,16.24505Q16.07395,16.21104,16.08528,16.17773Q16.09662,16.14443,16.11027,16.112009999999998Q16.12392,16.07958,16.13982,16.0482Q16.15571,16.01681,16.17377,15.98662Q16.19183,15.956430000000001,16.21197,15.92759Q16.2321,15.89874,16.25422,15.87138L20.22229,10.962171Q20.25733,10.918817,20.29697,10.879625Q20.33662,10.840434,20.38037,10.805892Q20.424129999999998,10.77135,20.47145,10.741886000000001Q20.51878,10.712420999999999,20.56908,10.688399Q20.61939,10.664377,20.67205,10.646095Q20.72471,10.627813,20.77908,10.615497Q20.83345,10.603182,20.888849999999998,10.596986Q20.94425,10.59079,21,10.59079Q21.05575,10.59079,21.111150000000002,10.596986Q21.16655,10.603182,21.22092,10.615497Q21.27529,10.627813,21.32795,10.646095Q21.38061,10.664377,21.43092,10.688399Q21.48122,10.712420999999999,21.52855,10.741886000000001Q21.575870000000002,10.77135,21.61963,10.805892Q21.66338,10.840434,21.70303,10.879625Q21.74267,10.918817,21.77771,10.962171L25.7458,15.87138Z" fill-opacity="1"/></g></svg>