<svg xmlns="http://www.w3.org/2000/svg" xmlns:xlink="http://www.w3.org/1999/xlink" fill="none" version="1.1" width="221.866943359375" height="48.7646484375" viewBox="0 0 221.866943359375 48.7646484375"><g style="mix-blend-mode:passthrough"><g><g><path d="M39.813953125,16.0413Q29.103353125,14.6182,20.740083124999998,19.272C27.822053125,12.5806,38.073453125,12.1265,40.996453125,12.1417C41.447653125,10.9472,41.978253124999995,9.77348,42.586053125,8.62581Q38.884053125,7.97056,33.697453124999996,8.41164C38.716853125,6.79817,42.269553125,6.54424,43.808953125,6.52277C45.278353125,4.19284,47.065553125,2.00481,49.136753125,0C27.908453125,2.04102,11.439453125,16.7162,11.439453125,34.5287C11.439453125,34.9573,11.460313625,35.3819,11.479216525,35.8068C12.067862125,28.1663,19.870153125,22.1164,29.413953125,22.1164C32.883253124999996,22.113,36.278953125,22.9303,39.187153124999995,24.4686C39.136353125,23.7754,39.103053125,23.0786,39.103053125,22.3746C39.102653125,20.2503,39.340553125,18.1304,39.813953125,16.0413Z" fill="#FFFFFF" fill-opacity="1"/></g><g><path d="M42.3992,43.21945240234375C39.1816,43.21945240234375,36.2217,42.37840240234375,33.8352,40.91734240234375L33.6876,40.83412240234375C30.9077,38.85068240234375,27.5766,37.44651240234375,23.9812,36.74254640234375L23.9629,36.73485840234375C23.9627,36.73618140234375,23.9627,36.73751440234375,23.9629,36.73883540234375C22.2125,36.39484940234375,20.4183,36.21993531234375,18.6175,36.21771240234375C11.1327,36.21771240234375,4.51062,39.14935240234375,0.340579,43.66821240234375L0.346772,43.67431240234375C0.0190303,43.92173240234375,-0.0884074,44.30737240234375,0.0761947,44.64552240234375C0.240797,44.983662402343754,0.643703,45.20501240234375,1.09089,45.20295240234375C1.33306,45.20295240234375,1.54492,45.12634240234375,1.72581,45.01740240234375L1.74146,45.03251240234375C5.85023,42.18171240234375,11.1715,40.45666240234375,16.9976,40.45666240234375C21.6588,40.45193240234375,26.2161,41.57614240234375,30.0886,43.68597240234375L30.0843,43.67908240234375L30.1049,43.68438240234375C32.6507,45.09980240234375,35.6407,45.89437240234375,38.723,45.97456240234375L38.7634,45.98542240234375C38.7611,45.981982402343746,38.7585,45.97906240234375,38.7566,45.97561240234375C38.9306,45.98012240234375,39.1024,45.99258240234375,39.2781,45.99258240234375C45.8274,45.99258240234375,51.4584,42.841202402343754,54.043,38.30775240234375C51.4587,41.27598240234375,47.2117,43.21945240234375,42.3992,43.21945240234375Z" fill="#FFFFFF" fill-opacity="1"/></g><g><path d="M26.144221875,46.657166433105466C24.354121875,46.659046433105466,22.619221875,46.15282643310547,21.238921875,45.22580643310547L21.187421875,45.20432643310547C19.758921875,44.30521643310547,18.137621875,43.629603433105466,16.405921875,43.21182543310547L16.343021874999998,43.18531843310547C16.343021874999998,43.18929243310547,16.346621875,43.19300643310547,16.347521874999998,43.196980433105466C15.019221875,42.87717843310547,13.641421875,42.71382842310547,12.256021875,42.71190643310547C8.473231875,42.71190643310547,5.036211874999999,43.88933643310547,2.445339875,45.80974643310547C2.431650875,45.819816433105466,2.416330875,45.82750643310547,2.403293875,45.838376433105466C2.397101875,45.84314643310547,2.390255875,45.847126433105466,2.384062875,45.851626433105466L2.388626875,45.856396433105466C2.249394975,45.97789643310547,2.171340295,46.137486433105465,2.169921875,46.303566433105466C2.16991789627,46.67497643310547,2.5401388750000002,46.97605643310547,2.996824875,46.976046433105466C3.1345688750000003,46.97343643310547,3.2692018750000003,46.94222643310547,3.3879518749999997,46.88539643310547L3.405871875,46.90368643310547C5.789131875,45.84341643310547,8.512011874999999,45.22316643310547,11.423941875,45.22316643310547C14.357321875,45.22021643310547,17.239821875,45.84612643310547,19.781021875,47.037806433105466C20.963121875,47.63844643310547,22.347421875,48.00000643310547,23.845121875,48.00000643310547C25.953021875,48.00079643310547,27.969021875,47.29804643310547,29.421921875,46.05599643310547C28.397321875,46.45073643310547,27.278021875,46.656046433105466,26.144221875,46.657166433105466Z" fill="#FFFFFF" fill-opacity="1"/></g></g><g><g><path d="M66.57701110839844,48.502071875L66.57701110839844,47.147881874999996L73.43629110839844,40.067921875C73.91439110839843,39.570821875,74.39242110839844,39.125091875,74.82897110839843,38.747901875L67.34607510839844,38.747901875L67.34607510839844,37.513671875L76.94911110839844,37.513671875L76.94911110839844,38.816531875L69.42465110839844,46.479281875L68.61398110839843,47.267891875000004L77.15691110839843,47.267891875000004L77.15691110839843,48.570771875L66.57701110839844,48.502071875Z" fill="#FFFFFF" fill-opacity="1"/></g><g><path d="M84.36993408203125,48.502071875L84.36993408203125,37.513671875L86.13673408203125,37.513671875L86.13673408203125,42.056541875L93.09998408203126,42.056541875L93.09998408203126,37.513671875L94.86683408203125,37.513671875L94.86683408203125,48.570771875L93.09998408203126,48.570771875L93.09998408203126,43.427931875L86.13673408203125,43.427931875L86.13673408203125,48.570771875L84.36993408203125,48.502071875Z" fill="#FFFFFF" fill-opacity="1"/></g><g><path d="M103.09654235839844,48.502071875L103.09654235839844,37.513671875L112.78272235839844,37.513671875L112.78272235839844,38.816531875L104.86334235839844,38.816531875L104.86334235839844,42.245081875L112.28388235839844,42.245081875L112.28388235839844,43.530791875L104.86334235839844,43.530791875L104.86334235839844,47.302211875L113.17764235839843,47.302211875L113.17764235839843,48.605071875L103.09654235839844,48.502071875Z" fill="#FFFFFF" fill-opacity="1"/></g><g><path d="M120.76451110839844,48.502071875L120.76451110839844,37.513671875L122.57286110839844,37.513671875L129.59847110839843,46.187891875L129.59847110839843,37.513671875L131.30291110839843,37.513671875L131.30291110839843,48.570771875L129.49456110839844,48.570771875L122.44815110839843,39.879381875L122.44815110839843,48.570771875L120.76451110839844,48.502071875Z" fill="#FFFFFF" fill-opacity="1"/></g><g><path d="M138.16294860839844,48.502171875L143.33858860839842,42.742291875L138.82810860839842,37.513776506L140.90668860839844,37.513776506L143.33864860839844,40.359421875C143.83748860839844,40.942321875,144.19087860839844,41.387941875,144.41948860839844,41.713661875C144.73988860839845,41.272741875,145.09397860839843,40.848991875,145.47958860839844,40.445111875L148.16096860839843,37.513671875L150.09404860839845,37.513671875L145.39642860839842,42.656491875L150.44734860839844,48.502071875L148.26484860839844,48.502071875L144.89758860839845,44.559311875C144.71051860839844,44.336441875,144.50264860839843,44.079261875,144.31558860839843,43.822181875L143.67122860839845,44.645001875L140.30394860839843,48.502071875L138.16294860839844,48.502171875Z" fill="#FFFFFF" fill-opacity="1"/></g><g><path d="M157.53599548339844,48.502071875L157.53599548339844,37.513671875L159.30279548339843,37.513671875L159.30279548339843,48.570771875L157.53599548339844,48.502071875Z" fill="#FFFFFF" fill-opacity="1"/></g><g><path d="M167.59654235839844,48.502071875L167.59654235839844,37.513671875L169.36334235839843,37.513671875L169.36334235839843,42.999371875L176.01482235839845,37.513671875L178.42594235839843,37.513671875L172.81379235839844,41.987901875L178.67544235839844,48.570771875L176.24343235839845,48.570771875L171.48347235839844,42.982211875L169.28018235839843,44.696481875L169.28018235839843,48.536471875000004L167.59654235839844,48.502071875Z" fill="#FFFFFF" fill-opacity="1"/></g><g><path d="M185.43052673339844,48.502071875L185.43052673339844,37.513671875L195.11670673339844,37.513671875L195.11670673339844,38.816531875L187.19732673339843,38.816531875L187.19732673339843,42.245081875L194.59706673339844,42.245081875L194.59706673339844,43.530791875L187.19732673339843,43.530791875L187.19732673339843,47.302211875L195.51162673339843,47.302211875L195.51162673339843,48.605071875L185.43052673339844,48.502071875Z" fill="#FFFFFF" fill-opacity="1"/></g><g><path d="M202.20322870839843,45.365071875L203.80370860839844,45.176521875C203.76723860839843,45.782441875,203.96362860839844,46.382401875,204.36490860839845,46.890801875C204.72336860839843,47.219341875,205.24325860839843,47.395961875,205.77831860839845,47.370851875C206.18860860839843,47.381831875,206.59362860839843,47.292371875,206.94231860839844,47.113661875C207.25028860839845,46.952321875,207.48429860839843,46.711041875,207.60747860839842,46.427911875C207.75660860839844,45.975801875,207.81972860839844,45.507371875,207.79454860839843,45.039351875L207.79454860839843,37.513671875L209.49905860839843,37.513671875L209.49905860839843,45.039351875C209.53489860839844,45.775011875000004,209.39356860839843,46.509101875,209.08331860839843,47.199361875C208.82843860839844,47.693971875,208.37279860839843,48.099971875,207.79460860839845,48.347871874999996C207.15703860839844,48.632071875,206.44049860839843,48.773971875,205.71602860839843,48.759271874999996C204.71137860839843,48.809371875,203.72847860839843,48.503871875,203.01390460839843,47.919371874999996C202.34106860839844,47.191301875,202.04914960839844,46.271591875,202.20322870839843,45.365071875Z" fill="#FFFFFF" fill-opacity="1"/></g><g><path d="M218.00083923339844,48.502071875L218.00083923339844,37.513671875L219.76763923339843,37.513671875L219.76763923339843,48.570771875L218.00083923339844,48.502071875Z" fill="#FFFFFF" fill-opacity="1"/></g><g transform="matrix(6.123234262925839e-17,1,-1,6.123234262925839e-17,82.40904235839844,-71.78013610839844)"><rect x="77.09458923339844" y="5.314453125" width="4.86853551864624" height="10.579963684082031" rx="0" fill="#FFFFFF" fill-opacity="1"/></g><g><path d="M103.01435546264648,0L81.60500546264649,0C80.00934546264648,0,78.71575546264648,1.06682,78.71575546264648,2.38286L78.71575546264648,32.2798L84.59810546264649,32.2798L84.59810546264649,4.85142L103.01425546264649,4.85142L103.01435546264648,0Z" fill="#FFFFFF" fill-opacity="1"/></g><g transform="matrix(6.123234262925839e-17,1,-1,6.123234262925839e-17,115.25474548339844,-90.77427673339844)"><rect x="103.01451110839844" y="12.240234375" width="4.86853551864624" height="18.416202545166016" rx="0" fill="#FFFFFF" fill-opacity="1"/></g><g><path d="M103.01464985839844,18.240234375L95.94749985839843,18.240234375C94.07443985839843,18.240548268,92.69679885839844,19.688114375,93.14140195839843,21.188734375L96.36316985839844,32.194334375L102.26632985839844,32.194334375L99.33558985839844,22.285894374999998L102.99390985839844,22.285894374999998L103.01464985839844,18.240234375Z" fill="#FFFFFF" fill-opacity="1"/></g><g transform="matrix(6.123234262925839e-17,1,-1,6.123234262925839e-17,106.73912048339844,-93.67662048339844)"><rect x="100.20787048339844" y="6.53125" width="4.0628275871276855" height="12.970328330993652" rx="0" fill="#FFFFFF" fill-opacity="1"/></g><g><path d="M91.83163777770996,28.234434375L91.83163777770996,12.240234375L85.92848777770996,12.240234375L85.92848777770996,29.914434375C85.93984227770996,31.223634375,87.23007777770997,32.280134375,88.81773777770997,32.280134375L93.80631777770996,32.280134375L93.80631777770996,28.234434375L91.83163777770996,28.234434375Z" fill="#FFFFFF" fill-opacity="1"/></g><g><path d="M66.51451110839844,21.840376562499998L66.51451110839844,16.9718465625L77.09451110839844,13.5947265625L77.09451110839844,18.4632665625L66.51451110839844,21.840376562499998Z" fill="#FFFFFF" fill-opacity="1"/></g><g><path d="M69.21664110839843,0L69.21664110839843,27.3255L66.51451110839844,27.3255L66.51451110839844,32.1941L72.31370110839843,32.1941C73.90936110839844,32.1942,75.20295110839844,31.1274,75.20295110839844,29.8112L75.20295110839844,0L69.21664110839843,0Z" fill="#FFFFFF" fill-opacity="1"/></g><g><rect x="151.81919860839844" y="1.3203125" width="5.903162002563477" height="30.89120101928711" rx="0" fill="#FFFFFF" fill-opacity="1"/></g><g><rect x="173.93638610839844" y="0" width="5.903162002563477" height="32.19404983520508" rx="0" fill="#FFFFFF" fill-opacity="1"/></g><g><path d="M158.99182360839845,0.086042131L158.99182360839845,1.3202675L145.64732360839844,1.3202675L145.64732360839844,6.1716875L160.98722360839844,6.1716875C162.59442360839844,6.1717975,163.89722360839843,5.0972375,163.89722360839843,3.7716675L163.89722360839843,0.0859375L158.99182360839845,0.086042131Z" fill="#FFFFFF" fill-opacity="1"/></g><g transform="matrix(6.123234262925839e-17,1,-1,6.123234262925839e-17,173.11802673339844,-154.67271423339844)"><rect x="163.89537048339844" y="9.22265625" width="4.86853551864624" height="18.249916076660156" rx="0" fill="#FFFFFF" fill-opacity="1"/></g><g><path d="M163.81333923339844,27.7026690625L163.81333923339844,22.8341290625L182.06323923339843,20.5712890625L182.06323923339843,25.4398290625L163.81333923339844,27.7026690625Z" fill="#FFFFFF" fill-opacity="1"/></g><g><path d="M162.87684360839845,24.993942132568357L162.87684360839845,16.14834213256836L158.49107360839844,16.14834213256836L158.49107360839844,27.46254213256836C158.49101017519843,28.77854213256836,159.78460360839844,29.84534213256836,161.38032360839844,29.84534213256836L163.89539360839845,29.84534213256836L163.89539360839845,24.993942132568357L162.87684360839845,24.993942132568357Z" fill="#FFFFFF" fill-opacity="1"/></g><g><path d="M146.66580360839845,24.993942132568357L145.64732360839844,24.993942132568357L145.64732360839844,29.84534213256836L148.18319360839843,29.84534213256836C149.77885360839844,29.84534213256836,151.07244360839843,28.77854213256836,151.07244360839843,27.46254213256836L151.07244360839843,16.14834213256836L146.66587360839844,16.14834213256836L146.66580360839845,24.993942132568357Z" fill="#FFFFFF" fill-opacity="1"/></g><g><path d="M169.71705485839843,4.2859725L169.25976485839843,1.3203125L164.35435485839844,1.3203125L165.26893485839844,7.3031125C165.44743485839842,8.4976825,166.67803485839843,9.3948925,168.13738485839843,9.3944725L172.93889485839844,9.3944725L172.93889485839844,5.3316525L171.15134485839843,5.3316525C170.41989485839844,5.3357325,169.80186485839843,4.8851925000000005,169.71705485839843,4.2859725Z" fill="#FFFFFF" fill-opacity="1"/></g><g><path d="M169.71705485839843,13.61172625L169.25976485839843,10.62890625L164.35435485839844,10.62890625L165.26893485839844,16.62886625C165.45612485839843,17.81966625,166.68152485839843,18.71311625,168.13738485839843,18.72022625L172.93889485839844,18.72022625L172.93889485839844,14.657406250000001L171.15134485839843,14.657406250000001C170.41989485839844,14.66148625,169.80186485839843,14.21094625,169.71705485839843,13.61172625Z" fill="#FFFFFF" fill-opacity="1"/></g><g><rect x="208.39732360839844" y="0" width="5.903162002563477" height="12.479909896850586" rx="0" fill="#FFFFFF" fill-opacity="1"/></g><g transform="matrix(6.123234262925839e-17,1,-1,6.123234262925839e-17,203.60044860839844,-195.40513610839844)"><rect x="199.50279235839844" y="4.09765625" width="4.86853551864624" height="14.300617218017578" rx="0" fill="#FFFFFF" fill-opacity="1"/></g><g transform="matrix(6.123234262925839e-17,1,-1,6.123234262925839e-17,225.79966735839844,-217.60435485839844)"><rect x="221.70201110839844" y="4.09765625" width="4.86853551864624" height="20.702638626098633" rx="0" fill="#FFFFFF" fill-opacity="1"/></g><g transform="matrix(6.123234262925839e-17,1,-1,6.123234262925839e-17,232.84560298919678,-210.3904504776001)"><path d="M224.05325673339843,11.22757625579834L226.48754673339843,11.22757625579834L226.48754673339843,32.013376255798335L221.61902072739844,32.013376255798335L221.61902072739844,14.26234625579834C221.58030723339843,12.59988625579834,222.68159673339844,11.22694192379834,224.05325673339843,11.22757625579834Z" fill="#FFFFFF" fill-opacity="1"/></g><g><path d="M213.65787048339843,16.0966796875L205.05253048339844,27.4279796875L200.89537048339844,27.4279796875L200.89537048339844,32.2793796875L207.75465048339845,32.2793796875C208.75043048339845,32.2813796875,209.67731048339843,31.8603796875,210.20736048339845,31.1650796875L221.66037048339842,16.0966796875L213.65787048339843,16.0966796875Z" fill="#FFFFFF" fill-opacity="1"/></g><g><path d="M185.20201110839844,23.0400740625L185.20201110839844,18.1715340625L199.50261110839844,15.2744140625L199.50261110839844,20.1429540625L185.20201110839844,23.0400740625Z" fill="#FFFFFF" fill-opacity="1"/></g><g><path d="M189.42167110839844,0L189.42167110839844,27.4284L185.26451110839844,27.4284L185.26451110839844,32.2798L192.45637110839843,32.2798C194.05546110839845,32.2798,195.35491110839843,31.2157,195.36641110839844,29.8969L195.36641110839844,0L189.42167110839844,0Z" fill="#FFFFFF" fill-opacity="1"/></g><g><path d="M217.37716423339845,27.428242596435545L210.70490423339845,18.548312596435547C210.18266423339844,17.844150596435547,209.25311423339843,17.415268496435548,208.25219423339843,17.416942596435547L202.01646423339844,17.416942596435547L212.40936423339843,31.131142596435545C212.93156423339843,31.835342596435545,213.86116423339843,32.26414259643555,214.86206423339843,32.262542596435544L221.86686423339845,32.262542596435544L221.86686423339845,27.428242596435545L217.37716423339845,27.428242596435545Z" fill="#FFFFFF" fill-opacity="1"/></g><g><path d="M136.74968298339843,10.4742L142.65288298339843,10.4742L140.69898298339842,2.6571C140.31368298339845,1.11024,138.66338298339844,0,136.74968298339843,0L111.99383298339843,0C110.08843298339843,0.0304476,108.45217298339844,1.12551,108.02374298339844,2.6571L106.09068298339844,10.4742L111.99383298339843,10.4742L113.38651298339843,4.86848L135.29468298339845,4.86848L136.74968298339843,10.4742Z" fill="#FFFFFF" fill-opacity="1"/></g><g transform="matrix(6.123234262925839e-17,1,-1,6.123234262925839e-17,144.08189392089844,-131.70494079589844)"><rect x="137.89341735839844" y="6.1884765625" width="2.365696907043457" height="27.250164031982422" rx="0" fill="#FFFFFF" fill-opacity="1"/></g><g transform="matrix(6.123234262925839e-17,1,-1,6.123234262925839e-17,152.67080974578857,-123.1160249710083)"><rect x="137.89341735839844" y="14.777392387390137" width="2.365696907043457" height="27.250164031982422" rx="0" fill="#FFFFFF" fill-opacity="1"/></g><g><path d="M119.72618298339845,17.657163619995117L106.09068298339844,17.657163619995117L106.09068298339844,20.69146361999512L115.96393298339844,20.69146361999512C116.77078298339843,20.710193619995117,117.40978298339844,21.260023619995117,117.39818298339844,21.925683619995116L117.39818298339844,32.21136361999512L123.30128298339844,32.21136361999512L123.30128298339844,20.211413619995117C123.33608298339844,18.866803619995117,122.04228298339844,17.75373801999512,120.41208298339843,17.725696919995116L119.72618298339845,17.657163619995117Z" fill="#FFFFFF" fill-opacity="1"/></g><g><path d="M113.59485735839844,22.2685546875L107.65014735839844,22.2685546875L108.81414735839844,27.4113746875L106.04966735839844,27.4113746875L106.04966735839844,32.2627946875L112.28539735839844,32.2627946875C114.09032735839844,32.2678146875,115.45230735839844,30.9132646875,115.11223735839843,29.4513646875L113.59485735839844,22.2685546875Z" fill="#FFFFFF" fill-opacity="1"/></g><g><path d="M132.84168548339844,22.2685546875L126.93853548339844,22.2685546875L128.10253548339844,27.4113746875L125.31724548339844,27.4113746875L125.31724548339844,32.2627946875L131.55297548339843,32.2627946875C133.35904548339843,32.2657246875,134.72552548339843,30.9165046875,134.40062548339844,29.4513646875L132.84168548339844,22.2685546875Z" fill="#FFFFFF" fill-opacity="1"/></g><g><path d="M138.93126110839845,17.657163619995117L125.29576110839844,17.657163619995117L125.29576110839844,20.69146361999512L135.23136110839843,20.69146361999512C136.04646110839843,20.70077361999512,136.69796110839843,21.253433619995118,136.68636110839844,21.925683619995116L136.68636110839844,32.21136361999512L142.58956110839844,32.21136361999512L142.58956110839844,20.211413619995117C142.61296110839845,18.870563619995117,141.32566110839844,17.76304961999512,139.70026110839845,17.725696919995116L138.93126110839845,17.657163619995117Z" fill="#FFFFFF" fill-opacity="1"/></g><g><path d="M107.00474548339844,12.8564928125L107.00474548339844,17.1078628125L112.90789548339843,17.1078628125L112.90789548339843,12.8393428125L134.27564548339845,12.8393428125C135.07924548339844,12.8392328125,135.73074548339844,13.3765128125,135.73074548339844,14.039352812499999L135.73074548339844,17.1078628125L141.63384548339843,17.1078628125L141.63384548339843,12.8564928125C141.63394548339843,11.5405528125,140.34044548339844,10.4736328125,138.74464548339844,10.4736328125L109.91474548339843,10.4736328125C108.31565548339844,10.4735281815,107.01609998339843,11.5377328125,107.00474548339844,12.8564928125Z" fill="#FFFFFF" fill-opacity="1"/></g></g></g></svg>