<svg width="32" height="32" viewBox="0 0 32 32" fill="none" xmlns="http://www.w3.org/2000/svg">
<g id="icon/discord">
<path id="Vector" d="M24.3468 8.19481C22.7822 7.47924 21.1206 6.95771 19.3862 6.66663C19.1679 7.04261 18.9253 7.552 18.7555 7.95225C16.9108 7.68542 15.0793 7.68542 13.2601 7.95225C13.0903 7.552 12.8355 7.04261 12.6293 6.66663C10.8829 6.95771 9.22126 7.47924 7.66761 8.19481C4.52633 12.8279 3.67733 17.3518 4.10182 21.8151C6.18793 23.3312 8.20128 24.253 10.1794 24.8594C10.6646 24.2044 11.1012 23.501 11.4772 22.7612C10.7616 22.4943 10.0824 22.1668 9.42748 21.7787C9.59727 21.6575 9.76708 21.5241 9.92475 21.3907C13.8786 23.1978 18.1612 23.1978 22.0666 21.3907C22.2364 21.5241 22.3941 21.6575 22.5639 21.7787C21.9089 22.1668 21.2297 22.4943 20.5141 22.7612C20.8901 23.501 21.3268 24.2044 21.8119 24.8594C23.7888 24.253 25.8143 23.3312 27.8895 21.8151C28.4109 16.6484 27.0635 12.1609 24.3468 8.19481ZM12.023 19.0619C10.8344 19.0619 9.86408 17.9825 9.86408 16.6605C9.86408 15.3385 10.8101 14.2591 12.023 14.2591C13.2237 14.2591 14.2061 15.3385 14.1818 16.6605C14.1818 17.9825 13.2237 19.0619 12.023 19.0619ZM19.9926 19.0619C18.804 19.0619 17.8325 17.9825 17.8325 16.6605C17.8325 15.3385 18.7797 14.2591 19.9926 14.2591C21.1934 14.2591 22.1757 15.3385 22.1515 16.6605C22.1515 17.9825 21.2055 19.0619 19.9926 19.0619Z" fill="#5A65EA"/>
</g>
</svg>
