<svg width="32" height="32" viewBox="0 0 32 32" fill="none" xmlns="http://www.w3.org/2000/svg">
<g id="icon/ins">
<g id="Group 2">
<g id="Group">
<path id="Vector" d="M22.9746 10.3066C22.9746 9.59756 22.4 9.02507 21.6936 9.02507C20.9872 9.02507 20.4121 9.59756 20.4121 10.3066C20.4121 11.013 20.9872 11.5854 21.6936 11.5854C22.4 11.5854 22.9746 11.013 22.9746 10.3066" fill="url(#paint0_linear_595_15371)"/>
<path id="Vector_2" d="M24.6811 20.3098C24.6336 21.3499 24.4597 21.915 24.3152 22.2903C24.1212 22.7879 23.8898 23.1438 23.5145 23.517C23.1434 23.8902 22.7875 24.1211 22.2899 24.313C21.9146 24.4595 21.3473 24.634 20.3073 24.6836C19.1829 24.7331 18.8497 24.7437 15.9983 24.7437C13.1496 24.7437 12.8138 24.7331 11.6894 24.6836C10.6494 24.634 10.0848 24.4595 9.70941 24.313C9.20916 24.1211 8.85598 23.8902 8.48276 23.517C8.10688 23.1438 7.87548 22.7879 7.68412 22.2903C7.53965 21.915 7.36308 21.3499 7.31825 20.3098C7.26345 19.1854 7.25341 18.847 7.25341 16.0014C7.25341 13.15 7.26345 12.8142 7.31825 11.6898C7.36308 10.6498 7.53965 10.0852 7.68412 9.70665C7.87548 9.20956 8.10688 8.85583 8.48276 8.4826C8.85598 8.10993 9.20916 7.87849 9.70941 7.68452C10.0848 7.53745 10.6494 7.36558 11.6894 7.31604C12.8138 7.26647 13.1496 7.25381 15.9983 7.25381C18.8497 7.25381 19.1829 7.26647 20.3073 7.31604C21.3473 7.36558 21.9146 7.53745 22.2899 7.68452C22.7875 7.87849 23.1434 8.10993 23.5145 8.4826C23.8898 8.85583 24.1212 9.20956 24.3152 9.70665C24.4597 10.0852 24.6336 10.6498 24.6811 11.6898C24.7332 12.8142 24.7459 13.15 24.7459 16.0014C24.7459 18.847 24.7332 19.1854 24.6811 20.3098V20.3098ZM26.6015 11.6023C26.5493 10.4658 26.3701 9.68926 26.1039 9.01295C25.8329 8.31129 25.4697 7.71667 24.8751 7.12204C24.2831 6.53006 23.6885 6.16684 22.9868 5.89273C22.3078 5.62914 21.534 5.44779 20.3969 5.39825C19.2598 5.34341 18.8966 5.33341 15.9983 5.33341C13.1027 5.33341 12.7369 5.34341 11.5998 5.39825C10.4653 5.44779 9.69202 5.62914 9.00989 5.89273C8.31089 6.16684 7.71626 6.53006 7.12428 7.12204C6.52966 7.71667 6.16644 8.31129 5.89284 9.01295C5.62925 9.68926 5.45004 10.4658 5.3952 11.6023C5.34566 12.7394 5.33301 13.1031 5.33301 16.0014C5.33301 18.8971 5.34566 19.2602 5.3952 20.3973C5.45004 21.5318 5.62925 22.3077 5.89284 22.9872C6.16644 23.6862 6.52966 24.2835 7.12428 24.8755C7.71626 25.4675 8.31089 25.8333 9.00989 26.1069C9.69202 26.3705 10.4653 26.5497 11.5998 26.6019C12.7369 26.6541 13.1027 26.6667 15.9983 26.6667C18.8966 26.6667 19.2598 26.6541 20.3969 26.6019C21.534 26.5497 22.3078 26.3705 22.9868 26.1069C23.6885 25.8333 24.2831 25.4675 24.8751 24.8755C25.4697 24.2835 25.8329 23.6862 26.1039 22.9872C26.3701 22.3077 26.5493 21.5318 26.6015 20.3973C26.6537 19.2602 26.6663 18.8971 26.6663 16.0014C26.6663 13.1031 26.6537 12.7394 26.6015 11.6023V11.6023Z" fill="url(#paint1_linear_595_15371)"/>
<path id="Vector_3" d="M15.998 19.5539C14.0354 19.5539 12.4429 17.964 12.4429 16.0014C12.4429 14.0356 14.0354 12.4436 15.998 12.4436C17.9611 12.4436 19.5557 14.0356 19.5557 16.0014C19.5557 17.964 17.9611 19.5539 15.998 19.5539V19.5539ZM15.998 10.5206C12.9727 10.5206 10.5225 12.976 10.5225 16.0014C10.5225 19.0241 12.9727 21.4769 15.998 21.4769C19.0233 21.4769 21.4761 19.0241 21.4761 16.0014C21.4761 12.976 19.0233 10.5206 15.998 10.5206Z" fill="url(#paint2_linear_595_15371)"/>
</g>
</g>
</g>
<defs>
<linearGradient id="paint0_linear_595_15371" x1="5.52589" y1="26.4462" x2="24.89" y2="7.08218" gradientUnits="userSpaceOnUse">
<stop stop-color="#FFD521"/>
<stop offset="0.05" stop-color="#FFD521"/>
<stop offset="0.501119" stop-color="#F50000"/>
<stop offset="0.95" stop-color="#B900B4"/>
<stop offset="0.950079" stop-color="#B900B4"/>
<stop offset="1" stop-color="#B900B4"/>
</linearGradient>
<linearGradient id="paint1_linear_595_15371" x1="5.52543" y1="26.4727" x2="24.9054" y2="7.09279" gradientUnits="userSpaceOnUse">
<stop stop-color="#FFD521"/>
<stop offset="0.05" stop-color="#FFD521"/>
<stop offset="0.501119" stop-color="#F50000"/>
<stop offset="0.95" stop-color="#B900B4"/>
<stop offset="0.950079" stop-color="#B900B4"/>
<stop offset="1" stop-color="#B900B4"/>
</linearGradient>
<linearGradient id="paint2_linear_595_15371" x1="5.53008" y1="26.4733" x2="24.9054" y2="7.09796" gradientUnits="userSpaceOnUse">
<stop stop-color="#FFD521"/>
<stop offset="0.05" stop-color="#FFD521"/>
<stop offset="0.501119" stop-color="#F50000"/>
<stop offset="0.95" stop-color="#B900B4"/>
<stop offset="0.950079" stop-color="#B900B4"/>
<stop offset="1" stop-color="#B900B4"/>
</linearGradient>
</defs>
</svg>
