<svg width="32" height="32" viewBox="0 0 32 32" fill="none" xmlns="http://www.w3.org/2000/svg">
<g id="icon/&#230;&#142;&#168;&#231;&#137;&#185;">
<g id="Twitter 1">
<g id="Group">
<path id="Vector" d="M27.6425 8.93695C26.8075 9.30695 25.9105 9.55695 24.9675 9.66995C25.9295 9.09395 26.6675 8.17995 27.0155 7.09195C26.1155 7.62595 25.1185 8.01395 24.0575 8.22195C23.2075 7.31795 21.9975 6.75195 20.6575 6.75195C18.0855 6.75195 15.9995 8.83795 15.9995 11.412C15.9995 11.776 16.0415 12.13 16.1195 12.472C12.2465 12.277 8.81552 10.422 6.51752 7.60395C6.11752 8.29395 5.88752 9.09395 5.88752 9.94595C5.88752 11.562 6.71052 12.989 7.95952 13.824C7.19552 13.799 6.47752 13.59 5.84952 13.241V13.301C5.84952 15.558 7.45452 17.441 9.58652 17.869C9.19452 17.975 8.78352 18.031 8.35952 18.031C8.05952 18.031 7.76652 18.003 7.48252 17.949C8.07552 19.799 9.79552 21.147 11.8345 21.183C10.2395 22.433 8.23052 23.1779 6.04852 23.1779C5.67252 23.1779 5.30152 23.156 4.93652 23.113C6.99852 24.436 9.44652 25.2059 12.0765 25.2059C20.6465 25.2059 25.3315 18.108 25.3315 11.952C25.3315 11.752 25.3265 11.55 25.3175 11.35C26.2275 10.692 27.0175 9.87295 27.6405 8.93995L27.6425 8.93695Z" fill="#3D99F7"/>
</g>
</g>
</g>
</svg>
