<svg xmlns="http://www.w3.org/2000/svg" xmlns:xlink="http://www.w3.org/1999/xlink" fill="none" version="1.1" width="19.52890396118164" height="22.784557342529297" viewBox="0 0 19.52890396118164 22.784557342529297"><g><path d="M12.9442,3.69919C13.6896,2.739,14.2543,1.38333,14.0509,0C12.8303,0.0846094,11.4063,0.862547,10.5763,1.87479C9.81786,2.7927,9.19456,4.1565,9.43707,5.48126C10.7716,5.52356,12.1452,4.72774,12.9442,3.69919ZM19.5289,16.7173C18.9951,17.9004,18.7396,18.4309,18.0528,19.479C17.0926,20.9438,15.7418,22.7665,14.0671,22.7795C12.5796,22.7958,12.1956,21.8096,10.1775,21.8209C8.15949,21.8323,7.73637,22.7991,6.24722,22.7844C4.57259,22.7681,3.2934,21.1244,2.33483,19.6597C-0.345581,15.5683,-0.627112,10.7656,1.02474,8.21053C2.20137,6.39755,4.05507,5.33808,5.79804,5.33808C7.57198,5.33808,8.68679,6.31292,10.1564,6.31292C11.5804,6.31292,12.4478,5.33644,14.4984,5.33644C16.051,5.33644,17.6964,6.18274,18.8681,7.64745C15.029,9.75499,15.6507,15.2476,19.5289,16.7189L19.5289,16.7173Z" fill="#FFFFFF" fill-opacity="1"/></g></svg>