<svg width="32" height="32" viewBox="0 0 32 32" xmlns="http://www.w3.org/2000/svg">
<g id="icon/&#233;&#146;&#177;&#229;&#140;&#133;">
<g id="Group 38">
<path id="Vector" d="M20.7998 16.0001H23.1998V20.6668H20.7998V16.0001Z" />
<path id="Vector_2" d="M25.6 10.1667V7.83333C25.6 6.5465 24.5236 5.5 23.2 5.5H7.6C5.6152 5.5 4 7.07033 4 9V23C4 25.5678 6.1528 26.5 7.6 26.5H25.6C26.9236 26.5 28 25.4535 28 24.1667V12.5C28 11.2132 26.9236 10.1667 25.6 10.1667ZM7.6 7.83333H23.2V10.1667H7.6C7.29102 10.1532 6.99929 10.0244 6.78553 9.80712C6.57178 9.5898 6.45248 9.30069 6.45248 9C6.45248 8.69931 6.57178 8.4102 6.78553 8.19288C6.99929 7.97556 7.29102 7.84677 7.6 7.83333V7.83333ZM25.6 24.1667H7.6144C7.06 24.1527 6.4 23.9392 6.4 23V12.2842C6.7768 12.416 7.1764 12.5 7.6 12.5H25.6V24.1667Z" />
</g>
</g>
</svg>
